<?xml version="1.0" encoding="UTF-8"?>
<!DOCTYPE svg PUBLIC "-//W3C//DTD SVG 1.1//EN" "http://www.w3.org/Graphics/SVG/1.1/DTD/svg11.dtd">
<!-- Creator: CorelDRAW -->
<svg xmlns="http://www.w3.org/2000/svg" xml:space="preserve" width="300mm" height="167.96mm" version="1.1" style="shape-rendering:geometricPrecision; text-rendering:geometricPrecision; image-rendering:optimizeQuality; fill-rule:evenodd; clip-rule:evenodd"
viewBox="0 0 30000 16796"
 xmlns:xlink="http://www.w3.org/1999/xlink"
 xmlns:xodm="http://www.corel.com/coreldraw/odm/2003">
 <defs>
  <style type="text/css">
   <![CDATA[
    .fil1 {fill:none}
    .fil0 {fill:white;fill-rule:nonzero}
   ]]>
  </style>
 </defs>
 <g id="Capa_x0020_1">
  <metadata id="CorelCorpID_0Corel-Layer"/>
  <path class="fil0" d="M16834.06 9282.02l2311.56 -3628.67 2958.49 0 2784.96 4461.04 -2653.86 0 -456.17 -727.54 -2323.09 -0.67 -459.01 728.21c-1598.24,0 -3196.49,0 -4794.74,0l0 -4461.04 2631.86 0 0 3628.67zm-12015.92 2955.25l298.73 0 0 1518.52 883.72 0 0 271.34 -1182.45 0 0 -1789.86zm2018.2 301.22l-265.94 776.68 532.31 0 -266.37 -776.68zm-166.37 -301.22l335.24 0 657.6 1789.86 -318.22 0 -160.56 -463.02 -696.2 0 -156.83 463.02 -311.17 0 650.14 -1789.86zm2202.31 0l1284.1 0 0 261.39 -990.35 0 0 468 913.6 0 0 251.42 -913.6 0 0 540.2 1023.13 0 0 268.85 -1316.88 0 0 -1789.86zm2896.53 522.36l-283.79 1.24c-6.64,-101.23 -44.81,-180.48 -114.93,-238.15 -70.11,-57.67 -163.88,-86.3 -281.29,-86.3 -97.09,0 -176.75,22.82 -238.15,68.05 -61.82,45.22 -92.53,101.64 -92.53,168.86 0,68.04 26.97,123.64 81.32,167.2 54.35,43.15 168.45,87.13 341.88,131.94 263.46,66.38 435.64,138.16 516.13,216.16 80.9,77.58 121.15,186.29 121.15,325.69 0,168.45 -63.07,303.7 -189.2,406.18 -125.71,102.48 -294.16,153.93 -504.92,153.93 -221.97,0 -394.98,-53.52 -518.62,-160.57 -123.64,-106.62 -189.61,-260.55 -198.74,-461.77l288.77 0c8.3,116.17 51.86,205.78 130.69,270.09 79.25,63.9 186.29,95.84 321.96,95.84 102.06,0 185.87,-24.89 251.01,-74.26 65.14,-49.38 97.92,-109.95 97.92,-182.14 0,-28.22 -9.13,-60.58 -27.39,-96.67 -18.25,-36.1 -41.9,-66.8 -70.11,-92.94 -46.89,-42.73 -151.44,-84.22 -313.66,-124.05 -34.86,-8.72 -60.99,-15.35 -78.83,-19.5 -199.98,-52.69 -341.46,-119.49 -424.03,-201.23 -82.56,-81.32 -124.05,-192.09 -124.05,-332.74 0,-148.95 60.57,-270.51 181.72,-363.87 121.15,-93.76 282.13,-140.65 483.36,-140.65 195.41,0 351,51.45 467.58,153.93 116.17,102.89 175.09,241.47 176.75,415.73zm195.14 -522.36l1399.03 0 0 261.39 -550.15 0 0 1528.47 -296.24 0 0 -1528.47 -552.64 0 0 -261.39zm2162.99 301.22l-265.94 776.68 532.31 0 -266.37 -776.68zm-166.37 -301.22l335.24 0 657.6 1789.86 -318.22 0 -160.56 -463.02 -696.2 0 -156.83 463.02 -311.17 0 650.14 -1789.86zm1188.82 0l316.15 0 833.94 1338.87 0 -1338.87 288.77 0 0 1789.86 -313.66 0 -838.92 -1338.87 0 1338.87 -286.28 0 0 -1789.86zm1748.93 0l1344.26 0 0 262.63 -1030.6 1263.36 1023.13 0 0 263.87 -1386.58 0 0 -248.94 1042.64 -1282.02 -992.85 0 0 -258.9zm1572.6 0l298.73 0 0 1112.75c0,154.76 33.19,268.85 99.57,342.7 66.39,73.44 169.28,110.37 308.69,110.37 140.23,0 243.54,-36.93 310.34,-111.2 66.8,-73.85 100.4,-187.94 100.4,-341.87l0 -1112.75 298.73 0 0 1129.76c0,226.95 -61.41,402.04 -184.63,525.26 -123.23,123.22 -297.9,184.63 -524.84,184.63 -232.35,0 -408.26,-59.75 -527.75,-179.24 -119.49,-119.49 -179.24,-296.65 -179.24,-530.65l0 -1129.76zm1795.82 0l1284.1 0 0 261.39 -990.35 0 0 468 913.6 0 0 251.42 -913.6 0 0 540.2 1023.13 0 0 268.85 -1316.88 0 0 -1789.86zm1616.99 0l298.73 0 0 1518.52 883.72 0 0 271.34 -1182.45 0 0 -1789.86zm2018.2 301.22l-265.94 776.68 532.31 0 -266.37 -776.68zm-166.37 -301.22l335.24 0 657.6 1789.86 -318.22 0 -160.56 -463.02 -696.2 0 -156.83 463.02 -311.17 0 650.14 -1789.86zm-21240.34 -1038.2l25003.71 0 0 -226.83 -25003.71 0 0 226.83zm13022.91 -8478.59c726.78,0 1315.93,589.15 1315.93,1315.93 0,726.78 -589.15,1315.93 -1315.93,1315.93 -726.78,0 -1315.93,-589.15 -1315.93,-1315.93 0,-726.78 589.15,-1315.93 1315.93,-1315.93zm-5127.34 2932.87l1222.91 0 0 2114.53 -1222.91 -2114.53zm1222.91 4461.04l-1222.91 0 0 -2114.34 1222.91 2114.34zm-6486.62 0l2631.85 0 0 -4461.04 -2631.85 0 0 4461.04zm1315.93 -7393.91c726.77,0 1315.92,589.15 1315.92,1315.93 0,726.78 -589.15,1315.93 -1315.92,1315.93 -726.78,0 -1315.93,-589.15 -1315.93,-1315.93 0,-726.78 589.15,-1315.93 1315.93,-1315.93zm13702.89 5493.76l886.97 0 -454.1 -672.52 -432.87 672.52z"/>
  <rect class="fil1" x="-2.93" y="0.93" width="30000" height="16796"/>
 </g>
</svg>
