<?xml version="1.0" encoding="UTF-8"?>
<!DOCTYPE svg PUBLIC "-//W3C//DTD SVG 1.1//EN" "http://www.w3.org/Graphics/SVG/1.1/DTD/svg11.dtd">
<!-- Creator: CorelDRAW -->
<svg xmlns="http://www.w3.org/2000/svg" xml:space="preserve" width="300mm" height="167.96mm" version="1.1" style="shape-rendering:geometricPrecision; text-rendering:geometricPrecision; image-rendering:optimizeQuality; fill-rule:evenodd; clip-rule:evenodd"
viewBox="0 0 30000 16796"
 xmlns:xlink="http://www.w3.org/1999/xlink"
 xmlns:xodm="http://www.corel.com/coreldraw/odm/2003">
 <defs>
  <style type="text/css">
   <![CDATA[
    .fil1 {fill:none}
    .fil0 {fill:white;fill-rule:nonzero}
   ]]>
  </style>
 </defs>
 <g id="Capa_x0020_1">
  <metadata id="CorelCorpID_0Corel-Layer"/>
  <path class="fil0" d="M16821.31 9058.81l2295.52 -3603.49 2937.97 0 2765.63 4430.09 -2635.44 0 -453.01 -722.5 -2306.97 -0.66 -455.82 723.16c-1587.16,0 -3174.32,0 -4761.48,0l0 -4430.09 2613.6 0 0 3603.49zm-10327.8 3887.65l-281.82 1.24c-6.59,-100.54 -44.5,-179.23 -114.13,-236.5 -69.63,-57.27 -162.75,-85.7 -279.35,-85.7 -96.41,0 -175.52,22.66 -236.49,67.57 -61.39,44.91 -91.88,100.94 -91.88,167.69 0,67.57 26.78,122.78 80.75,166.04 53.98,42.85 167.28,86.53 339.5,131.02 261.63,65.93 432.62,137.21 512.55,214.66 80.35,77.05 120.31,185 120.31,323.44 0,167.28 -62.63,301.59 -187.88,403.36 -124.84,101.77 -292.12,152.86 -501.42,152.86 -220.43,0 -392.24,-53.15 -515.02,-159.45 -122.78,-105.89 -188.3,-258.75 -197.36,-458.58l286.76 0c8.24,115.37 51.51,204.37 129.79,268.23 78.69,63.45 184.99,95.17 319.72,95.17 101.36,0 184.59,-24.72 249.27,-73.75 64.69,-49.03 97.24,-109.18 97.24,-180.87 0,-28.02 -9.06,-60.16 -27.19,-96 -18.13,-35.85 -41.62,-66.34 -69.63,-92.29 -46.56,-42.44 -150.39,-83.64 -311.49,-123.2 -34.61,-8.65 -60.56,-15.24 -78.28,-19.36 -198.59,-52.33 -339.09,-118.66 -421.08,-199.83 -81.99,-80.76 -123.2,-190.76 -123.2,-330.44 0,-147.91 60.16,-268.63 180.47,-361.34 120.31,-93.11 280.17,-139.67 480,-139.67 194.06,0 348.56,51.09 464.34,152.86 115.36,102.18 173.87,239.79 175.52,412.84zm1071.33 -219.61l-264.1 771.3 528.61 0 -264.51 -771.3zm-165.22 -299.12l332.91 0 653.05 1777.44 -316.02 0 -159.45 -459.81 -691.37 0 -155.74 459.81 -309.01 0 645.63 -1777.44zm1269.51 0l296.65 0 0 1507.98 877.6 0 0 269.46 -1174.25 0 0 -1777.44zm1103.06 0l1389.32 0 0 259.57 -546.33 0 0 1517.87 -294.18 0 0 -1517.87 -548.81 0 0 -259.57zm2479.19 210.13c-173.46,0 -308.6,59.74 -405.83,179.23 -97.65,119.48 -146.27,286.35 -146.27,500.6 0,213.42 48.62,379.88 146.27,499.77 97.23,119.9 232.37,180.05 405.83,180.05 172.23,0 306.96,-60.15 404.19,-180.05 97.65,-119.89 146.27,-286.35 146.27,-499.77 0,-214.25 -48.62,-381.12 -145.44,-500.6 -97.24,-119.49 -231.97,-179.23 -405.02,-179.23zm0 -257.1c263.69,0 471.76,83.64 623.8,250.51 152.03,166.86 228.25,395.94 228.25,686.42 0,290.47 -76.22,519.55 -228.25,686.42 -152.04,166.86 -360.11,250.5 -623.8,250.5 -264.92,0 -473.4,-83.23 -625.44,-250.09 -152.03,-166.46 -228.26,-395.54 -228.26,-686.83 0,-291.3 76.23,-520.38 228.26,-686.84 152.04,-166.86 360.52,-250.09 625.44,-250.09zm3579.91 590.83l-292.53 0c-22.25,-105.47 -73.34,-187.88 -152.86,-247.21 -79.11,-59.33 -178.41,-88.99 -297.48,-88.99 -177.99,0 -316.02,58.91 -414.08,176.75 -98.47,117.84 -147.5,283.88 -147.5,498.13 0,210.13 49.44,375.35 148.74,496.07 98.88,120.72 234.03,181.29 405.43,181.29 145.85,0 264.1,-44.91 354.74,-135.15 90.65,-89.82 138.44,-210.54 144.21,-361.75l-487.01 0 0 -244.73 758.94 0 0 959.17 -194.89 0 -49.44 -224.96c-65.92,89.41 -145.85,157.39 -240.2,203.12 -94.35,45.74 -200.24,68.81 -318.9,68.81 -245.15,0 -444.57,-86.11 -597.02,-257.92 -152.44,-171.81 -228.67,-397.19 -228.67,-676.53 0,-285.12 76.64,-512.55 230.32,-682.3 153.68,-169.75 358.87,-254.63 615.55,-254.63 214.25,0 388.12,51.91 522.44,155.74 134.73,103.83 214.66,248.86 240.21,435.09zm763.56 -294.18l0 546.34 423.55 0c124.02,0 213.01,-21.84 266.99,-65.1 53.97,-43.26 80.75,-113.72 80.75,-210.95 0,-95.18 -26.37,-163.58 -79.1,-206.43 -52.74,-42.43 -139.68,-63.86 -261.22,-63.86l-430.97 0zm-291.71 -249.68l767.17 0c23.49,0 49.03,0.82 77.46,2.47 8.66,0.83 14.01,1.24 15.66,1.24 156.98,0 279.76,43.67 368.34,131.43 89,87.76 133.5,208.07 133.5,361.75 0,100.53 -22.25,186.65 -66.34,257.92 -44.08,71.7 -107.12,123.2 -188.29,154.51 72.52,23.49 124.43,60.16 156.15,110.42 31.73,50.27 50.68,132.26 56.45,245.56l15.66 255.04 0 2.47c4.53,110.84 29.25,178.41 73.34,202.72l0 51.91 -330.44 0c-12.77,-23.48 -22.66,-51.09 -29.67,-82.82 -6.59,-31.72 -11.53,-82.4 -14.83,-151.62l-9.89 -212.19c-6.18,-114.54 -30.07,-190.35 -71.69,-228.25 -41.61,-37.91 -111.65,-56.86 -210.54,-56.86l-56.86 0 -391 0 0 731.74 -294.18 0 0 -1777.44zm2419.04 299.12l-264.1 771.3 528.61 0 -264.51 -771.3zm-165.22 -299.12l332.91 0 653.05 1777.44 -316.02 0 -159.45 -459.81 -691.37 0 -155.74 459.81 -309.01 0 645.63 -1777.44zm1269.51 0l313.96 0 828.15 1329.58 0 -1329.58 286.76 0 0 1777.44 -311.48 0 -833.1 -1329.58 0 1329.58 -284.29 0 0 -1777.44zm2196.55 252.15l0 1263.25 363.4 0c176.34,0 306.12,-52.74 389.35,-158.22 83.23,-105.06 124.84,-268.63 124.84,-489.88 0,-201.07 -42.02,-353.93 -125.66,-458.17 -83.64,-104.65 -206.42,-156.98 -367.93,-156.98l-384 0zm-291.71 -252.15l687.66 0c260.8,0 456.51,73.75 587.12,221.25 130.61,147.92 196.12,368.35 196.12,662.11 0,287.18 -71.69,508.02 -214.66,662.53 -143.38,154.5 -349.39,231.55 -618.03,231.55l-638.21 0 0 -1777.44zm1869.82 0l1275.19 0 0 259.57 -983.48 0 0 464.76 907.26 0 0 249.68 -907.26 0 0 536.44 1016.03 0 0 266.99 -1307.74 0 0 -1777.44zm-21019.16 -1465.17l24830.21 0 0 -225.26 -24830.21 0 0 225.26zm12932.54 -8419.76c721.74,0 1306.8,585.07 1306.8,1306.8 0,721.74 -585.06,1306.8 -1306.8,1306.8 -721.73,0 -1306.8,-585.06 -1306.8,-1306.8 0,-721.73 585.07,-1306.8 1306.8,-1306.8zm-5091.75 2912.52l1214.42 0 0 2099.85 -1214.42 -2099.85zm1214.42 4430.09l-1214.42 0 0 -2099.67 1214.42 2099.67zm-6441.62 0l2613.6 0 0 -4430.09 -2613.6 0 0 4430.09zm1306.8 -7342.61c721.74,0 1306.8,585.07 1306.8,1306.8 0,721.74 -585.06,1306.8 -1306.8,1306.8 -721.73,0 -1306.8,-585.06 -1306.8,-1306.8 0,-721.73 585.07,-1306.8 1306.8,-1306.8zm13607.81 5455.65l880.82 0 -450.96 -667.87 -429.86 667.87z"/>
  <rect class="fil1" x="-2.93" y="0.93" width="30000" height="16796"/>
 </g>
</svg>
