<?xml version="1.0" encoding="UTF-8"?>
<!DOCTYPE svg PUBLIC "-//W3C//DTD SVG 1.1//EN" "http://www.w3.org/Graphics/SVG/1.1/DTD/svg11.dtd">
<!-- Creator: CorelDRAW -->
<svg xmlns="http://www.w3.org/2000/svg" xml:space="preserve" width="300mm" height="167.96mm" version="1.1" style="shape-rendering:geometricPrecision; text-rendering:geometricPrecision; image-rendering:optimizeQuality; fill-rule:evenodd; clip-rule:evenodd"
viewBox="0 0 30000 16796"
 xmlns:xlink="http://www.w3.org/1999/xlink"
 xmlns:xodm="http://www.corel.com/coreldraw/odm/2003">
 <defs>
  <style type="text/css">
   <![CDATA[
    .fil1 {fill:none}
    .fil0 {fill:white;fill-rule:nonzero}
   ]]>
  </style>
 </defs>
 <g id="Capa_x0020_1">
  <metadata id="CorelCorpID_0Corel-Layer"/>
  <path class="fil0" d="M16834.06 9146.01l2311.56 -3628.67 2958.5 0 2784.95 4461.05 -2653.85 0 -456.18 -727.55 -2323.08 -0.66 -459.01 728.21c-1598.25,0 -3196.5,0 -4794.74,0l0 -4461.05 2631.85 0 0 3628.67zm8473.58 3752.1l-283.79 1.24c-6.64,-101.23 -44.81,-180.48 -114.93,-238.15 -70.11,-57.67 -163.88,-86.3 -281.29,-86.3 -97.09,0 -176.75,22.82 -238.15,68.05 -61.82,45.22 -92.53,101.64 -92.53,168.86 0,68.04 26.97,123.64 81.32,167.2 54.35,43.15 168.45,87.13 341.88,131.94 263.46,66.38 435.64,138.16 516.13,216.16 80.9,77.58 121.15,186.29 121.15,325.69 0,168.45 -63.07,303.7 -189.2,406.18 -125.71,102.48 -294.16,153.93 -504.92,153.93 -221.97,0 -394.98,-53.52 -518.62,-160.57 -123.64,-106.62 -189.61,-260.55 -198.74,-461.77l288.77 0c8.3,116.17 51.86,205.78 130.69,270.09 79.25,63.9 186.29,95.84 321.96,95.84 102.06,0 185.87,-24.89 251.01,-74.26 65.14,-49.38 97.92,-109.95 97.92,-182.14 0,-28.22 -9.13,-60.58 -27.39,-96.67 -18.25,-36.1 -41.9,-66.8 -70.11,-92.94 -46.89,-42.73 -151.44,-84.22 -313.66,-124.05 -34.86,-8.72 -60.99,-15.35 -78.83,-19.5 -199.98,-52.69 -341.46,-119.49 -424.03,-201.23 -82.56,-81.32 -124.05,-192.09 -124.05,-332.74 0,-148.95 60.57,-270.51 181.72,-363.87 121.15,-93.76 282.13,-140.65 483.36,-140.65 195.41,0 351,51.45 467.58,153.93 116.17,102.89 175.09,241.47 176.75,415.73zm-2945.64 -522.36l1284.1 0 0 261.39 -990.35 0 0 468 913.6 0 0 251.42 -913.6 0 0 540.2 1023.13 0 0 268.85 -1316.88 0 0 -1789.86zm-1474.42 251.43l0 550.15 426.51 0c124.88,0 214.5,-21.99 268.85,-65.55 54.35,-43.57 81.32,-114.51 81.32,-212.43 0,-95.84 -26.55,-164.71 -79.66,-207.86 -53.11,-42.74 -140.65,-64.31 -263.04,-64.31l-433.98 0zm-293.75 -251.43l772.54 0c23.65,0 49.37,0.83 78,2.49 8.71,0.83 14.1,1.25 15.76,1.25 158.08,0 281.72,43.98 370.92,132.35 89.62,88.37 134.43,209.52 134.43,364.28 0,101.23 -22.41,187.94 -66.8,259.72 -44.4,72.19 -107.88,124.05 -189.61,155.59 73.02,23.65 125.3,60.57 157.25,111.19 31.94,50.62 51.03,133.18 56.84,247.28l15.76 256.82 0 2.48c4.57,111.61 29.46,179.65 73.85,204.13l0 52.28 -332.74 0c-12.86,-23.65 -22.82,-51.45 -29.88,-83.39 -6.63,-31.95 -11.61,-82.98 -14.93,-152.69l-9.96 -213.67c-6.22,-115.34 -30.29,-191.68 -72.19,-229.85 -41.9,-38.17 -112.44,-57.25 -212.01,-57.25l-57.26 0 -393.73 0 0 736.85 -296.24 0 0 -1789.86zm-1673.57 0l1399.03 0 0 261.39 -550.15 0 0 1528.47 -296.24 0 0 -1528.47 -552.64 0 0 -261.39zm-2433.45 0l369.25 0 437.3 814.03 422.78 -814.03 343.95 0 -614.88 1082.88 0 706.98 -298.72 0 0 -693.7 -659.68 -1096.16zm-1657.61 301.22l-265.94 776.68 532.31 0 -266.37 -776.68zm-166.37 -301.22l335.24 0 657.6 1789.86 -318.22 0 -160.56 -463.02 -696.2 0 -156.83 463.02 -311.17 0 650.14 -1789.86zm-2045.73 0l1399.03 0 0 261.39 -550.15 0 0 1528.47 -296.24 0 0 -1528.47 -552.64 0 0 -261.39zm-1710.91 0l316.15 0 833.94 1338.87 0 -1338.87 288.77 0 0 1789.86 -313.66 0 -838.92 -1338.87 0 1338.87 -286.28 0 0 -1789.86zm-747.11 0l298.72 0 0 1789.86 -298.72 0 0 -1789.86zm-1673.57 0l1284.1 0 0 261.39 -990.35 0 0 468 913.6 0 0 251.42 -913.6 0 0 540.2 1023.13 0 0 268.85 -1316.88 0 0 -1789.86zm-1474.42 251.43l0 550.15 426.51 0c124.88,0 214.5,-21.99 268.85,-65.55 54.35,-43.57 81.32,-114.51 81.32,-212.43 0,-95.84 -26.55,-164.71 -79.66,-207.86 -53.11,-42.74 -140.65,-64.31 -263.04,-64.31l-433.98 0zm-293.75 -251.43l772.54 0c23.65,0 49.37,0.83 78,2.49 8.71,0.83 14.1,1.25 15.76,1.25 158.08,0 281.72,43.98 370.92,132.35 89.62,88.37 134.43,209.52 134.43,364.28 0,101.23 -22.41,187.94 -66.8,259.72 -44.4,72.19 -107.88,124.05 -189.61,155.59 73.02,23.65 125.3,60.57 157.25,111.19 31.94,50.62 51.03,133.18 56.84,247.28l15.76 256.82 0 2.48c4.57,111.61 29.46,179.65 73.85,204.13l0 52.28 -332.74 0c-12.86,-23.65 -22.82,-51.45 -29.88,-83.39 -6.63,-31.95 -11.61,-82.98 -14.93,-152.69l-9.96 -213.67c-6.22,-115.34 -30.29,-191.68 -72.19,-229.85 -41.9,-38.17 -112.44,-57.25 -212.01,-57.25l-57.26 0 -393.73 0 0 736.85 -296.24 0 0 -1789.86zm-1673.57 0l1399.03 0 0 261.39 -550.15 0 0 1528.47 -296.24 0 0 -1528.47 -552.64 0 0 -261.39zm-2548.55 -1312.69l25003.72 0 0 -226.83 -25003.72 0 0 226.83zm13022.92 -8478.58c726.77,0 1315.92,589.15 1315.92,1315.92 0,726.78 -589.15,1315.93 -1315.92,1315.93 -726.78,0 -1315.93,-589.15 -1315.93,-1315.93 0,-726.77 589.15,-1315.92 1315.93,-1315.92zm-5127.34 2932.86l1222.91 0 0 2114.53 -1222.91 -2114.53zm1222.91 4461.05l-1222.91 0 0 -2114.34 1222.91 2114.34zm-6486.63 0l2631.86 0 0 -4461.05 -2631.86 0 0 4461.05zm1315.93 -7393.91c726.78,0 1315.93,589.15 1315.93,1315.92 0,726.78 -589.15,1315.93 -1315.93,1315.93 -726.77,0 -1315.93,-589.15 -1315.93,-1315.93 0,-726.77 589.16,-1315.92 1315.93,-1315.92zm13702.89 5493.76l886.98 0 -454.11 -672.53 -432.87 672.53z"/>
  <rect class="fil1" x="-2.93" y="0.93" width="30000" height="16796"/>
 </g>
</svg>
