<?xml version="1.0" encoding="UTF-8"?>
<!DOCTYPE svg PUBLIC "-//W3C//DTD SVG 1.1//EN" "http://www.w3.org/Graphics/SVG/1.1/DTD/svg11.dtd">
<!-- Creator: CorelDRAW -->
<svg xmlns="http://www.w3.org/2000/svg" xml:space="preserve" width="300mm" height="167.96mm" version="1.1" style="shape-rendering:geometricPrecision; text-rendering:geometricPrecision; image-rendering:optimizeQuality; fill-rule:evenodd; clip-rule:evenodd"
viewBox="0 0 30000 16796"
 xmlns:xlink="http://www.w3.org/1999/xlink"
 xmlns:xodm="http://www.corel.com/coreldraw/odm/2003">
 <defs>
  <style type="text/css">
   <![CDATA[
    .fil1 {fill:none}
    .fil0 {fill:white;fill-rule:nonzero}
   ]]>
  </style>
 </defs>
 <g id="Capa_x0020_1">
  <metadata id="CorelCorpID_0Corel-Layer"/>
  <g id="_1312692258304">
   <path class="fil0" d="M16834.05 9281.64l2311.56 -3628.66 2958.49 0 2784.96 4461.04 -2653.86 0 -456.17 -727.54 -2323.09 -0.67 -459 728.21c-1598.25,0 -3196.5,0 -4794.75,0l0 -4461.04 2631.86 0 0 3628.66zm-14338.84 1917.06l25003.71 0 0 -226.83 -25003.71 0 0 226.83zm13022.91 -8478.59c726.78,0 1315.93,589.15 1315.93,1315.93 0,726.78 -589.15,1315.93 -1315.93,1315.93 -726.78,0 -1315.93,-589.15 -1315.93,-1315.93 0,-726.78 589.15,-1315.93 1315.93,-1315.93zm-5127.33 2932.87l1222.9 0 0 2114.53 -1222.9 -2114.53zm1222.9 4461.04l-1222.9 0 0 -2114.34 1222.9 2114.34zm-6486.62 0l2631.86 0 0 -4461.04 -2631.86 0 0 4461.04zm1315.93 -7393.91c726.77,0 1315.93,589.15 1315.93,1315.93 0,726.78 -589.16,1315.93 -1315.93,1315.93 -726.78,0 -1315.93,-589.15 -1315.93,-1315.93 0,-726.78 589.15,-1315.93 1315.93,-1315.93zm13702.89 5493.76l886.97 0 -454.1 -672.53 -432.87 672.53z"/>
   <path class="fil0" d="M5115.38 12860.19l0 976.71 280.97 0c136.35,0 236.69,-40.77 301.04,-122.32 64.35,-81.24 96.53,-207.71 96.53,-378.78 0,-155.46 -32.5,-273.64 -97.16,-354.24 -64.67,-80.91 -159.6,-121.37 -284.48,-121.37l-296.9 0zm-225.55 -194.96l531.69 0c201.65,0 352.97,57.02 453.95,171.07 100.98,114.36 151.64,284.79 151.64,511.93 0,222.04 -55.43,392.79 -165.98,512.25 -110.86,119.46 -270.14,179.03 -477.84,179.03l-493.46 0 0 -1374.28zm1329.45 0l229.36 0 0 1374.28 -229.36 0 0 -1374.28zm708.25 193.05l0 422.41 327.48 0c95.89,0 164.7,-16.88 206.43,-50.33 41.73,-33.45 62.44,-87.92 62.44,-163.11 0,-73.58 -20.39,-126.46 -61.17,-159.6 -40.77,-32.81 -107.99,-49.37 -201.97,-49.37l-333.21 0zm-225.55 -193.05l593.17 0c18.16,0 37.91,0.63 59.89,1.91 6.69,0.64 10.83,0.95 12.11,0.95 121.37,0 216.3,33.77 284.79,101.63 68.81,67.85 103.22,160.87 103.22,279.7 0,77.72 -17.21,144.3 -51.29,199.42 -34.09,55.43 -82.83,95.25 -145.59,119.46 56.07,18.16 96.21,46.51 120.74,85.37 24.53,38.87 39.18,102.26 43.64,189.87l12.11 197.19 0 1.91c3.5,85.69 22.62,137.94 56.7,156.73l0 40.14 -255.49 0c-9.87,-18.16 -17.52,-39.5 -22.93,-64.03 -5.1,-24.53 -8.92,-63.71 -11.47,-117.23l-7.65 -164.06c-4.78,-88.56 -23.25,-147.18 -55.43,-176.49 -32.17,-29.3 -86.33,-43.96 -162.78,-43.96l-43.96 0 -302.32 0 0 565.77 -227.46 0 0 -1374.28zm1266.69 0l985.96 0 0 200.69 -760.41 0 0 359.34 701.47 0 0 193.05 -701.47 0 0 414.77 785.57 0 0 206.43 -1011.12 0 0 -1374.28zm2348.53 430.06l-225.22 0c-12.43,-82.83 -49.06,-147.18 -109.91,-193.05 -60.52,-45.87 -140.16,-68.81 -238.6,-68.81 -131.25,0 -232.87,44.6 -304.87,133.48 -71.67,88.88 -107.67,214.71 -107.67,377.18 0,163.42 36.32,292.44 109.27,386.41 72.63,93.98 172.66,140.81 299.77,140.81 100.66,0 184.13,-29.63 249.75,-89.2 65.62,-59.25 102.26,-137.94 109.59,-235.74l223.63 0c-5.74,155.78 -63.72,283.21 -173.94,382.28 -110.54,99.39 -250.07,149.09 -418.59,149.09 -195.92,0 -350.42,-64.35 -463.19,-193.37 -113.09,-128.7 -169.48,-305.82 -169.48,-531.05 0,-227.77 57.34,-405.53 171.71,-532.95 114.36,-127.75 273.64,-191.46 477.84,-191.46 165.34,0 298.82,41.41 399.8,124.24 100.98,82.83 157.69,196.87 170.11,342.14zm1343.14 0l-225.22 0c-12.43,-82.83 -49.06,-147.18 -109.91,-193.05 -60.52,-45.87 -140.16,-68.81 -238.6,-68.81 -131.25,0 -232.87,44.6 -304.87,133.48 -71.67,88.88 -107.67,214.71 -107.67,377.18 0,163.42 36.32,292.44 109.27,386.41 72.63,93.98 172.66,140.81 299.77,140.81 100.66,0 184.13,-29.63 249.75,-89.2 65.62,-59.25 102.26,-137.94 109.59,-235.74l223.63 0c-5.74,155.78 -63.72,283.21 -173.94,382.28 -110.54,99.39 -250.07,149.09 -418.59,149.09 -195.92,0 -350.42,-64.35 -463.19,-193.37 -113.09,-128.7 -169.48,-305.82 -169.48,-531.05 0,-227.77 57.34,-405.53 171.71,-532.95 114.36,-127.75 273.64,-191.46 477.84,-191.46 165.34,0 298.82,41.41 399.8,124.24 100.98,82.83 157.69,196.87 170.11,342.14zm188.67 -430.06l229.36 0 0 1374.28 -229.36 0 0 -1374.28zm1083.52 162.47c-134.12,0 -238.61,46.19 -313.79,138.57 -75.5,92.38 -113.09,221.4 -113.09,387.05 0,165.02 37.59,293.72 113.09,386.42 75.18,92.7 179.67,139.21 313.79,139.21 133.15,0 237.33,-46.51 312.51,-139.21 75.5,-92.7 113.09,-221.4 113.09,-386.42 0,-165.65 -37.59,-294.67 -112.46,-387.05 -75.18,-92.38 -179.35,-138.57 -313.14,-138.57zm0 -198.79c203.88,0 364.75,64.67 482.3,193.69 117.55,129.02 176.48,306.14 176.48,530.72 0,224.59 -58.93,401.71 -176.48,530.73 -117.55,129.02 -278.42,193.69 -482.3,193.69 -204.84,0 -366.03,-64.35 -483.58,-193.37 -117.55,-128.7 -176.49,-305.82 -176.49,-531.05 0,-225.22 58.94,-402.34 176.49,-531.04 117.55,-129.02 278.74,-193.37 483.58,-193.37zm45.55 -430.06l211.84 0 -279.06 334.49 -120.41 0 187.63 -334.49zm799.67 466.38l242.75 0 640.31 1028 0 -1028 221.72 0 0 1374.28 -240.83 0 -644.14 -1028 0 1028 -219.81 0 0 -1374.28zm1967.06 0l242.75 0 640.31 1028 0 -1028 221.72 0 0 1374.28 -240.83 0 -644.14 -1028 0 1028 -219.81 0 0 -1374.28zm1832.46 231.27l-204.2 596.36 408.72 0 -204.52 -596.36zm-127.74 -231.27l257.4 0 504.92 1374.28 -244.34 0 -123.28 -355.52 -534.55 0 -120.42 355.52 -238.92 0 499.19 -1374.28zm2019.77 430.06l-225.22 0c-12.43,-82.83 -49.06,-147.18 -109.91,-193.05 -60.52,-45.87 -140.16,-68.81 -238.6,-68.81 -131.25,0 -232.87,44.6 -304.87,133.48 -71.67,88.88 -107.67,214.71 -107.67,377.18 0,163.42 36.32,292.44 109.27,386.41 72.63,93.98 172.66,140.81 299.77,140.81 100.66,0 184.13,-29.63 249.75,-89.2 65.62,-59.25 102.26,-137.94 109.59,-235.74l223.63 0c-5.74,155.78 -63.72,283.21 -173.94,382.28 -110.54,99.39 -250.07,149.09 -418.59,149.09 -195.92,0 -350.42,-64.35 -463.19,-193.37 -113.09,-128.7 -169.48,-305.82 -169.48,-531.05 0,-227.77 57.34,-405.53 171.71,-532.95 114.36,-127.75 273.64,-191.46 477.84,-191.46 165.34,0 298.82,41.41 399.8,124.24 100.98,82.83 157.69,196.87 170.11,342.14zm188.67 -430.06l229.36 0 0 1374.28 -229.36 0 0 -1374.28zm1083.52 162.47c-134.12,0 -238.61,46.19 -313.79,138.57 -75.5,92.38 -113.09,221.4 -113.09,387.05 0,165.02 37.59,293.72 113.09,386.42 75.18,92.7 179.67,139.21 313.79,139.21 133.15,0 237.33,-46.51 312.51,-139.21 75.5,-92.7 113.09,-221.4 113.09,-386.42 0,-165.65 -37.59,-294.67 -112.46,-387.05 -75.18,-92.38 -179.35,-138.57 -313.14,-138.57zm0 -198.79c203.88,0 364.75,64.67 482.3,193.69 117.55,129.02 176.48,306.14 176.48,530.72 0,224.59 -58.93,401.71 -176.48,530.73 -117.55,129.02 -278.42,193.69 -482.3,193.69 -204.84,0 -366.03,-64.35 -483.58,-193.37 -117.55,-128.7 -176.49,-305.82 -176.49,-531.05 0,-225.22 58.94,-402.34 176.49,-531.04 117.55,-129.02 278.74,-193.37 483.58,-193.37zm845.22 36.32l242.75 0 640.31 1028 0 -1028 221.72 0 0 1374.28 -240.83 0 -644.14 -1028 0 1028 -219.81 0 0 -1374.28zm1832.46 231.27l-204.2 596.36 408.72 0 -204.52 -596.36zm-127.74 -231.27l257.4 0 504.92 1374.28 -244.34 0 -123.28 -355.52 -534.55 0 -120.42 355.52 -238.92 0 499.19 -1374.28zm859.56 0l229.37 0 0 1165.94 678.54 0 0 208.34 -907.91 0 0 -1374.28z"/>
  </g>
  <rect class="fil1" x="-2.93" y="0.93" width="30000" height="16796"/>
 </g>
</svg>
