<?xml version="1.0" encoding="UTF-8"?>
<!DOCTYPE svg PUBLIC "-//W3C//DTD SVG 1.1//EN" "http://www.w3.org/Graphics/SVG/1.1/DTD/svg11.dtd">
<!-- Creator: CorelDRAW -->
<svg xmlns="http://www.w3.org/2000/svg" xml:space="preserve" width="300mm" height="167.96mm" version="1.1" style="shape-rendering:geometricPrecision; text-rendering:geometricPrecision; image-rendering:optimizeQuality; fill-rule:evenodd; clip-rule:evenodd"
viewBox="0 0 30000 16796"
 xmlns:xlink="http://www.w3.org/1999/xlink"
 xmlns:xodm="http://www.corel.com/coreldraw/odm/2003">
 <defs>
  <style type="text/css">
   <![CDATA[
    .fil1 {fill:none}
    .fil0 {fill:white;fill-rule:nonzero}
   ]]>
  </style>
 </defs>
 <g id="Capa_x0020_1">
  <metadata id="CorelCorpID_0Corel-Layer"/>
  <path class="fil0" d="M16817.82 9112.66l2291.14 -3596.61 2932.35 0 2760.35 4421.63 -2630.41 0 -452.14 -721.11 -2302.56 -0.66 -454.95 721.77c-1584.13,0 -3168.25,0 -4752.38,0l0 -4421.63 2608.6 0 0 3596.61zm-14212.14 1900.11l24782.78 0 0 -224.82 -24782.78 0 0 224.82zm12907.84 -8403.67c720.36,0 1304.3,583.95 1304.3,1304.3 0,720.36 -583.94,1304.31 -1304.3,1304.31 -720.35,0 -1304.3,-583.95 -1304.3,-1304.31 0,-720.35 583.95,-1304.3 1304.3,-1304.3zm-5082.03 2906.95l1212.1 0 0 2095.85 -1212.1 -2095.85zm1212.1 4421.63l-1212.1 0 0 -2095.65 1212.1 2095.65zm-6429.31 0l2608.61 0 0 -4421.63 -2608.61 0 0 4421.63zm1304.3 -7328.58c720.36,0 1304.31,583.95 1304.31,1304.3 0,720.36 -583.95,1304.31 -1304.31,1304.31 -720.35,0 -1304.3,-583.95 -1304.3,-1304.31 0,-720.35 583.95,-1304.3 1304.3,-1304.3zm13581.82 5445.22l879.14 0 -450.09 -666.58 -429.05 666.58z"/>
  <path class="fil0" d="M5214.28 12461.16l287.91 0 0 1072.48c0,149.16 31.99,259.13 95.98,330.31 63.98,70.77 163.15,106.36 297.51,106.36 135.16,0 234.73,-35.59 299.11,-107.16 64.38,-71.18 96.77,-181.15 96.77,-329.51l0 -1072.48 287.91 0 0 1088.88c0,218.73 -59.18,387.48 -177.94,506.25 -118.77,118.76 -287.12,177.95 -505.85,177.95 -223.94,0 -393.49,-57.59 -508.65,-172.75 -115.17,-115.17 -172.75,-285.92 -172.75,-511.45l0 -1088.88zm3374.21 242.33l0 530.24 411.08 0c120.36,0 206.74,-21.19 259.12,-63.18 52.39,-41.99 78.38,-110.37 78.38,-204.74 0,-92.37 -25.59,-158.75 -76.78,-200.34 -51.18,-41.19 -135.56,-61.98 -253.52,-61.98l-418.28 0zm-283.11 -242.33l744.58 0c22.79,0 47.58,0.8 75.17,2.4 8.4,0.8 13.6,1.2 15.2,1.2 152.35,0 271.52,42.39 357.49,127.56 86.38,85.18 129.56,201.94 129.56,351.1 0,97.57 -21.59,181.14 -64.38,250.32 -42.78,69.58 -103.97,119.57 -182.74,149.96 70.38,22.79 120.76,58.38 151.55,107.17 30.79,48.78 49.19,128.36 54.79,238.33l15.19 247.52 0 2.4c4.4,107.57 28.39,173.15 71.18,196.74l0 50.39 -320.7 0c-12.4,-22.79 -22,-49.59 -28.8,-80.38 -6.39,-30.79 -11.19,-79.97 -14.39,-147.15l-9.6 -205.94c-6,-111.17 -29.19,-184.75 -69.58,-221.54 -40.39,-36.79 -108.37,-55.18 -204.34,-55.18l-55.18 0 -379.49 0 0 710.19 -285.51 0 0 -1725.09zm3007.52 0l287.91 0 0 1072.48c0,149.16 31.99,259.13 95.98,330.31 63.98,70.77 163.15,106.36 297.51,106.36 135.16,0 234.73,-35.59 299.11,-107.16 64.38,-71.18 96.77,-181.15 96.77,-329.51l0 -1072.48 287.91 0 0 1088.88c0,218.73 -59.18,387.48 -177.94,506.25 -118.77,118.76 -287.12,177.95 -505.85,177.95 -223.94,0 -393.49,-57.59 -508.65,-172.75 -115.17,-115.17 -172.75,-285.92 -172.75,-511.45l0 -1088.88zm4577.86 527.84l-283.92 0c-21.59,-102.37 -71.18,-182.34 -148.36,-239.92 -76.77,-57.59 -173.14,-86.38 -288.71,-86.38 -172.75,0 -306.71,57.18 -401.88,171.55 -95.57,114.37 -143.16,275.52 -143.16,483.46 0,203.94 47.99,364.29 144.36,481.45 95.97,117.17 227.13,175.95 393.48,175.95 141.56,0 256.33,-43.58 344.3,-131.16 87.97,-87.17 134.36,-204.34 139.96,-351.09l-472.66 0 0 -237.53 736.58 0 0 930.92 -189.14 0 -47.99 -218.34c-63.98,86.78 -141.56,152.76 -233.13,197.15 -91.57,44.38 -194.34,66.78 -309.51,66.78 -237.93,0 -431.47,-83.58 -579.43,-250.33 -147.95,-166.75 -221.93,-385.49 -221.93,-656.61 0,-276.71 74.38,-497.45 223.53,-662.2 149.16,-164.75 348.3,-247.13 597.43,-247.13 207.93,0 376.68,50.39 507.05,151.16 130.76,100.77 208.33,241.53 233.13,422.27zm1722.3 -527.84l287.91 0 0 1072.48c0,149.16 31.99,259.13 95.98,330.31 63.98,70.77 163.15,106.36 297.51,106.36 135.16,0 234.73,-35.59 299.11,-107.16 64.38,-71.18 96.77,-181.15 96.77,-329.51l0 -1072.48 287.91 0 0 1088.88c0,218.73 -59.18,387.48 -177.94,506.25 -118.77,118.76 -287.12,177.95 -505.85,177.95 -223.94,0 -393.49,-57.59 -508.65,-172.75 -115.17,-115.17 -172.75,-285.92 -172.75,-511.45l0 -1088.88zm3653.73 290.31l-256.33 748.58 513.05 0 -256.72 -748.58zm-160.36 -290.31l323.11 0 633.81 1725.09 -306.71 0 -154.75 -446.27 -671 0 -151.16 446.27 -299.91 0 626.61 -1725.09zm2156.58 0l355.89 0 421.48 784.57 407.48 -784.57 331.5 0 -592.63 1043.69 0 681.4 -287.91 0 0 -668.6 -635.81 -1056.49z"/>
  <rect class="fil1" x="-2.93" y="0.93" width="30000" height="16796"/>
 </g>
</svg>
