<?xml version="1.0" encoding="UTF-8"?>
<!DOCTYPE svg PUBLIC "-//W3C//DTD SVG 1.1//EN" "http://www.w3.org/Graphics/SVG/1.1/DTD/svg11.dtd">
<!-- Creator: CorelDRAW -->
<svg xmlns="http://www.w3.org/2000/svg" xml:space="preserve" width="300mm" height="167.96mm" version="1.1" style="shape-rendering:geometricPrecision; text-rendering:geometricPrecision; image-rendering:optimizeQuality; fill-rule:evenodd; clip-rule:evenodd"
viewBox="0 0 30000 16796"
 xmlns:xlink="http://www.w3.org/1999/xlink"
 xmlns:xodm="http://www.corel.com/coreldraw/odm/2003">
 <defs>
  <style type="text/css">
   <![CDATA[
    .fil1 {fill:none}
    .fil0 {fill:white;fill-rule:nonzero}
   ]]>
  </style>
 </defs>
 <g id="Capa_x0020_1">
  <metadata id="CorelCorpID_0Corel-Layer"/>
  <path class="fil0" d="M16834.05 9026.69l2311.56 -3628.67 2958.49 0 2784.96 4461.05 -2653.86 0 -456.17 -727.54 -2323.09 -0.67 -459 728.21c-1598.25,0 -3196.5,0 -4794.75,0l0 -4461.05 2631.86 0 0 3628.67zm-11705.44 3466.36l1399.03 0 0 261.39 -550.15 0 0 1528.47 -296.24 0 0 -1528.47 -552.64 0 0 -261.39zm2530.81 301.22l-265.94 776.68 532.31 0 -266.37 -776.68zm-166.37 -301.22l335.24 0 657.6 1789.86 -318.22 0 -160.56 -463.02 -696.2 0 -156.83 463.02 -311.17 0 650.14 -1789.86zm2978.9 560.11l-293.33 0c-16.18,-107.87 -63.89,-191.68 -143.14,-251.43 -78.83,-59.74 -182.55,-89.61 -310.76,-89.61 -170.93,0 -303.28,58.08 -397.05,173.84 -93.35,115.75 -140.24,279.64 -140.24,491.23 0,212.85 47.3,380.88 142.31,503.27 94.6,122.4 224.88,183.39 390.42,183.39 131.11,0 239.81,-38.59 325.28,-116.18 85.47,-77.17 133.18,-179.64 142.72,-307.02l291.26 0c-7.47,202.89 -82.98,368.84 -226.53,497.88 -143.97,129.44 -325.7,194.17 -545.18,194.17 -255.16,0 -456.38,-83.81 -603.25,-251.84 -147.29,-167.62 -220.73,-398.3 -220.73,-691.63 0,-296.65 74.68,-528.17 223.63,-694.12 148.95,-166.38 356.39,-249.36 622.34,-249.36 215.33,0 389.17,53.94 520.7,161.81 131.52,107.88 205.37,256.41 221.55,445.6zm576.65 -560.11l298.73 0 0 1112.75c0,154.76 33.19,268.85 99.57,342.7 66.39,73.44 169.28,110.37 308.69,110.37 140.23,0 243.54,-36.93 310.34,-111.2 66.8,-73.85 100.4,-187.94 100.4,-341.87l0 -1112.75 298.73 0 0 1129.76c0,226.95 -61.41,402.04 -184.63,525.26 -123.23,123.22 -297.9,184.63 -524.84,184.63 -232.35,0 -408.26,-59.75 -527.75,-179.24 -119.49,-119.49 -179.24,-296.65 -179.24,-530.65l0 -1129.76zm2658.61 301.22l-265.94 776.68 532.31 0 -266.37 -776.68zm-166.37 -301.22l335.24 0 657.6 1789.86 -318.22 0 -160.56 -463.02 -696.2 0 -156.83 463.02 -311.17 0 650.14 -1789.86zm1761.6 251.43l0 550.15 426.51 0c124.88,0 214.5,-21.99 268.85,-65.55 54.35,-43.57 81.32,-114.51 81.32,-212.43 0,-95.84 -26.55,-164.71 -79.66,-207.86 -53.11,-42.74 -140.65,-64.31 -263.04,-64.31l-433.98 0zm-293.75 -251.43l772.54 0c23.65,0 49.37,0.83 78,2.49 8.71,0.83 14.1,1.25 15.76,1.25 158.08,0 281.72,43.98 370.92,132.35 89.62,88.37 134.43,209.52 134.43,364.28 0,101.23 -22.41,187.94 -66.8,259.72 -44.4,72.19 -107.88,124.05 -189.61,155.59 73.02,23.65 125.3,60.57 157.25,111.19 31.94,50.62 51.03,133.18 56.84,247.28l15.76 256.82 0 2.48c4.57,111.61 29.46,179.65 73.85,204.13l0 52.28 -332.74 0c-12.86,-23.65 -22.82,-51.45 -29.88,-83.39 -6.63,-31.95 -11.61,-82.98 -14.93,-152.69l-9.96 -213.67c-6.22,-115.34 -30.29,-191.68 -72.19,-229.85 -41.9,-38.17 -112.44,-57.25 -212.01,-57.25l-57.26 0 -393.73 0 0 736.85 -296.24 0 0 -1789.86zm1998.09 0l1284.1 0 0 261.39 -990.35 0 0 468 913.6 0 0 251.42 -913.6 0 0 540.2 1023.13 0 0 268.85 -1316.88 0 0 -1789.86zm1896.02 0l433.15 0 430.25 1431.39 436.05 -1431.39 433.15 0 0 1789.86 -283.78 0 0 -1478.69 -443.53 1478.69 -291.67 0 -437.3 -1478.69 0 1478.69 -276.32 0 0 -1789.86zm2693.04 970.86l0 555.13 467.59 0c114.92,0 201.22,-23.24 258.06,-69.71 57.26,-46.88 85.88,-117.41 85.88,-212.01 0,-94.18 -28.62,-163.05 -86.3,-207.03 -57.67,-44.39 -148.94,-66.38 -274.66,-66.38l-450.57 0zm0 -721.92l0 477.96 422.78 0c111.6,0 192.92,-20.33 244.37,-60.58 51.45,-40.66 77.17,-104.13 77.17,-190.43 0,-76.34 -25.72,-132.77 -77.17,-170.52 -51.45,-37.76 -129.45,-56.43 -233.59,-56.43l-433.56 0zm-291.26 -248.94l774.61 0c187.12,0 327.35,37.76 420.29,112.85 92.94,75.52 139.4,188.78 139.4,340.22 0,84.64 -20.74,160.15 -62.64,225.7 -41.91,65.55 -100.82,113.68 -176.34,144.38 102.9,29.46 180.9,80.91 234.01,154.35 53.1,73.85 79.66,168.03 79.66,282.12 0,163.06 -55.6,292.09 -167.21,387.52 -111.19,95.01 -263.87,142.72 -457.63,142.72l-784.15 0 0 -1789.86zm2766.06 211.6c-174.67,0 -310.75,60.16 -408.67,180.48 -98.33,120.32 -147.29,288.35 -147.29,504.1 0,214.91 48.96,382.53 147.29,503.26 97.92,120.74 234,181.31 408.67,181.31 173.43,0 309.1,-60.57 407.02,-181.31 98.33,-120.73 147.28,-288.35 147.28,-503.26 0,-215.75 -48.95,-383.78 -146.45,-504.1 -97.92,-120.32 -233.59,-180.48 -407.85,-180.48zm0 -258.9c265.54,0 475.06,84.23 628.16,252.26 153.09,168.03 229.85,398.72 229.85,691.22 0,292.5 -76.76,523.18 -229.85,691.21 -153.1,168.03 -362.62,252.26 -628.16,252.26 -266.77,0 -476.71,-83.81 -629.81,-251.84 -153.09,-167.62 -229.85,-398.3 -229.85,-691.63 0,-293.33 76.76,-524.02 229.85,-691.63 153.1,-168.04 363.04,-251.85 629.81,-251.85zm59.33 -560.1l275.91 0 -363.45 435.64 -156.83 0 244.37 -435.64zm-21634.76 -941.91l25003.71 0 0 -226.82 -25003.71 0 0 226.82zm13022.91 -8478.58c726.78,0 1315.93,589.15 1315.93,1315.93 0,726.78 -589.15,1315.93 -1315.93,1315.93 -726.78,0 -1315.93,-589.15 -1315.93,-1315.93 0,-726.78 589.15,-1315.93 1315.93,-1315.93zm-5127.33 2932.86l1222.9 0 0 2114.53 -1222.9 -2114.53zm1222.9 4461.05l-1222.9 0 0 -2114.34 1222.9 2114.34zm-6486.62 0l2631.86 0 0 -4461.05 -2631.86 0 0 4461.05zm1315.93 -7393.91c726.78,0 1315.93,589.15 1315.93,1315.93 0,726.78 -589.15,1315.93 -1315.93,1315.93 -726.78,0 -1315.93,-589.15 -1315.93,-1315.93 0,-726.78 589.15,-1315.93 1315.93,-1315.93zm13702.89 5493.76l886.97 0 -454.1 -672.53 -432.87 672.53z"/>
  <rect class="fil1" x="-2.93" y="0.93" width="30000" height="16796"/>
 </g>
</svg>
